<svg id="Layer_1" data-name="Layer 1" xmlns="http://www.w3.org/2000/svg" viewBox="0 0 1135.39 1248.56"><defs><style>.cls-1{fill:none;}.cls-2,.cls-4{fill:#292929;}.cls-3{fill:#b4b4b4;opacity:0.5;}.cls-4{font-size:280px;font-family:TwCenMT-Regular, Tw Cen MT;letter-spacing:0.1em;}</style></defs><title>Castify02</title><path class="cls-1" d="M1046.23,1068.27c-18.79-13.89-30.46-31.65-33.35-54.94-1.62-13-2.13-26.2-4.78-39-4.25-20.44-21.33-30.3-40.62-22.27-12.46,5.19-25.15,12.46-34.43,22-16.76,17.22-31.58,36.42-46.2,55.57-15.68,20.56-29.86,42.26-45.4,62.93-5.84,7.76-13.66,14-20.58,21,13.8,12.76,14.38,13,28.89,3.85,20.73-13,37.75-30.08,51.67-50.13,7.63-11,14.51-22.52,22.64-35.23-9,45.71-35,77.73-72.79,103.2,7.53,3.68,13.29,6,18.54,9.18,7.62,4.59,13.65,4,19.82-2.86,13.1-14.65,27.39-28.27,39.94-43.35,13.2-15.86,24.95-32.94,38.21-50.66-13.24,41.25-36,75.18-66.3,107.59,22.08-.12,40.59,1.8,56.69-11.08,10.48-8.4,22-15.44,32.82-23.46,9.25-6.89,18.09-14.31,27.11-21.49l2.27,2.18c-14.14,15.59-28.27,31.18-44.43,49,29.48-5.33,56.94-9.6,81.19-24.87a28.37,28.37,0,0,0,4-3.27c10.88-10,13.14-22.17,4.57-34.25A88.65,88.65,0,0,0,1046.23,1068.27Z" transform="translate(-395.58 -328.27)"/><path class="cls-1" d="M711.23,906.72c8.19-99.68,62.28-169.08,151-215.3-29.43-20.13-50.28-45.71-64-76.67-15.3,9.23-29.12,18.43-43.71,26.16-21.13,11.2-43,20.79-67.82,19.49-14.86-.77-25.91-7.82-28.54-22.37a96.58,96.58,0,0,1,.47-37.54c4.37-19.3,5.74-37.78.91-57.2-6.84-27.49,6.65-48.56,34.11-55.48,27.62-7,54.13-.59,80.45,7.19,7.81,2.31,15.5,5,23,7.45,22.45-41,29.37-48.77,45-51.35-5.48,8.92-12,17.89-16.75,27.73A181.91,181.91,0,0,0,814,509.89c-17.84,66,4.85,126.78,61.18,164.49,6.43,4.31,12.39,8.75,21.76,6,58.47-17.51,115.95-13.34,172.3,9.51,3.11,1.26,6.28,2.38,10.87,4.12,1-19.89-4.87-36-13.47-51.1-21.85-38.31-52.64-68.05-89.75-91.46-11.07-7-12.79-13.34-2.95-21.92,13.21-11.5,27-22.65,41.87-31.89,47.59-29.64,99-46.92,155.91-44.51,2.16.1,4.36-.55,7.19-.94-79.11-79.76-252.43-142.56-421.81-71.57C595.69,448.22,483.16,619.94,514.88,818.22,543.6,997.72,688,1117.91,824,1144.32,743.9,1084,703.07,1006.11,711.23,906.72Zm21.43-230.83A12.11,12.11,0,1,1,720.55,688,12.11,12.11,0,0,1,732.66,675.89Zm-33.57,38A15.12,15.12,0,1,1,684,729,15.11,15.11,0,0,1,699.09,713.92ZM684.72,913.76a12.23,12.23,0,1,1-12.23-12.22A12.24,12.24,0,0,1,684.72,913.76Zm-37.14-84.12a15.12,15.12,0,1,1,15.11-15.12A15.12,15.12,0,0,1,647.58,829.64Zm16.89-149.45a12.22,12.22,0,1,1-12.22,12.22A12.22,12.22,0,0,1,664.47,680.19Zm319.37-225a22.59,22.59,0,0,1,0-45.17c.48,0,1,0,1.43.05a15.94,15.94,0,0,0,21.11,21.11c0,.47,0,.95,0,1.43A22.58,22.58,0,0,1,983.84,455.24Zm-460.71,318C514.24,601.7,615.4,460.2,747.25,399c147-68.23,303.31-32.7,394.24,38.67-24.12,6.46-48.32,13-72.57,19.34a13.1,13.1,0,0,1-7-.44c-12.15-3.89-24.32-7.77-36.25-12.27a10.4,10.4,0,0,1-5.63-6.79c-3.41-20.54-13.16-31.31-30.94-33.28-16.12-1.79-28.27,7-35.3,25.55-.35,1-.88,1.82-.56,1.19-28.77,2.28-56.68,3.42-84.28,6.95-36.53,4.69-71.08,16.6-104.38,32.44-6.6,3.14-15.15,3.95-22.56,3.25-18.33-1.73-36.42-3-54.42,2.3-31.47,9.24-48.79,35.56-41.16,67.48,4,16.69,5.76,19-8.42,42.9-5.73,9.66-11.68,19.51-16.74,29.7-2.66,5.35-5.38,7.6-11.84,6.83-15.13-1.81-28.1,6.46-32.73,19.67-4.71,13.47-.11,27.91,12.58,36.19,4.95,3.22,5.95,6.08,4.87,11.72-3.7,19.29-6.87,38.7-9.8,58.13-.78,5.23-1.89,8.33-7.77,10.11-16.76,5.06-25.51,16.92-25.33,32.41s9.38,27,26.33,31.37c7,1.8,7,6.24,7.59,11.44,8.52,71.51,33.38,136.52,77.77,193.56a313.37,313.37,0,0,0,79.17,72.27,54.61,54.61,0,0,1,7.63,5.94C639.74,1058.22,531.68,938.08,523.13,773.28ZM603,790a20.2,20.2,0,1,1-20.2-20.2A20.2,20.2,0,0,1,603,790Zm-17.4-138.34a18.39,18.39,0,1,1,18.38,18.38A18.38,18.38,0,0,1,585.56,651.68ZM613,847.42a12.22,12.22,0,1,1-12.22,12.22A12.23,12.23,0,0,1,613,847.42Z" transform="translate(-395.58 -328.27)"/><path class="cls-1" d="M978.46,433a7.11,7.11,0,1,0,7.11,7.11A7.11,7.11,0,0,0,978.46,433Z" transform="translate(-395.58 -328.27)"/><path class="cls-1" d="M733.11,528.85c18.5,1.34,37,2.86,56.55,4.4,4.11-6.88,1.57-10.85-6.23-13-10-2.81-19.56-7.66-29.67-9-17.61-2.25-35.68-4.56-53.19-2.94-17.75,1.64-24.8,14.19-20.32,31.4A115.65,115.65,0,0,1,678.51,606a54.68,54.68,0,0,0-2.34,12.17c-1.54,17.82,5,23.76,22.39,20.64,31.42-5.61,57.47-22.26,83.56-39.45,10-6.63,7.8-14,6.24-22.31-1.67-9-9.27-4.73-14.31-5.75-4.33-.88-8.93-.59-13.41-.61-12.4-.07-24.8,0-37.2,0-.11-1.17-.22-2.34-.32-3.5,19-2.67,38-5.47,57-7.9,5.07-.65,8.24-1.69,8.44-7.83.18-5.62-1.76-8.21-7.13-9.19-12.56-2.3-25-4.9-37.59-7.3-6.35-1.22-12.75-2.26-19.12-3.38A12.31,12.31,0,0,1,733.11,528.85Z" transform="translate(-395.58 -328.27)"/><path class="cls-1" d="M1081.7,491.52c31-4.81,60.91-6,91.49,3.88-17.86,53.49-54.39,87.82-103.1,110.59,2.18,9.73,7.09,11.23,15.27,7.84,51.06-21.12,85.74-58.9,109.76-107.5,3.91-7.9,6.8-16.31,10.08-24.3C1178.59,467.42,1106.36,473.1,1081.7,491.52Z" transform="translate(-395.58 -328.27)"/><circle class="cls-1" cx="1324.62" cy="701.06" r="24.66" transform="translate(-497.13 -87.81) rotate(-9.99)"/><path class="cls-1" d="M928.65,694.38c-6.06,1.38-11.07,2.07-11.92,9.91-1,9.11-3.2,18.08-4.88,27.11l-1.6-.18q-1.43-15.54-2.84-31.09c-20.92,2.78-20.82,3.21-24.33,21-2.16,10.93-6,21.53-9.06,32.28l-1.88-.57q1.61-20.08,3.19-40.18l-3.47-2.14c-4.44,3.55-11.3,6.26-12.88,10.8a493.58,493.58,0,0,0-14.31,50.75c-3.72,15.93,5.68,24.46,21.12,19.08,15.94-5.56,31.48-12.29,47.05-18.85,31.62-13.3,41.42-39.94,26.44-71.08C937.11,696.73,935.34,692.85,928.65,694.38Z" transform="translate(-395.58 -328.27)"/><circle class="cls-1" cx="721.81" cy="525.79" r="23.35"/><circle class="cls-1" cx="712.8" cy="615.29" r="14.34"/><circle class="cls-1" cx="475.96" cy="572.85" r="15.12"/><circle class="cls-1" cx="1162.5" cy="904.65" r="17.16" transform="translate(-607.85 47.42) rotate(-16.85)"/><circle class="cls-1" cx="434.68" cy="643.98" r="14.34"/><circle class="cls-1" cx="399.97" cy="595.03" r="16.4"/><path class="cls-2" d="M663,1027.42c-44.39-57-69.25-122.05-77.77-193.56-.62-5.2-.58-9.64-7.59-11.44-16.95-4.37-26.16-16-26.33-31.37s8.57-27.35,25.33-32.41c5.88-1.78,7-4.88,7.77-10.11,2.93-19.43,6.1-38.84,9.8-58.13,1.08-5.64.08-8.5-4.87-11.72-12.69-8.28-17.29-22.72-12.58-36.19,4.63-13.21,17.6-21.48,32.73-19.67,6.46.77,9.18-1.48,11.84-6.83,5.06-10.19,11-20,16.74-29.7,14.18-23.92,12.41-26.21,8.42-42.9-7.63-31.92,9.69-58.24,41.16-67.48,18-5.29,36.09-4,54.42-2.3,7.41.7,16-.11,22.56-3.25,33.3-15.84,67.85-27.75,104.38-32.44,27.6-3.53,55.51-4.67,84.28-6.95-.32.63.21-.24.56-1.19,7-18.53,19.18-27.34,35.3-25.55,17.78,2,27.53,12.74,30.94,33.28a10.4,10.4,0,0,0,5.63,6.79c11.93,4.5,24.1,8.38,36.25,12.27a13.1,13.1,0,0,0,7,.44c24.25-6.34,48.45-12.88,72.57-19.34C1050.56,366.3,894.25,330.77,747.25,399c-131.85,61.2-233,202.7-224.12,374.28,8.55,164.8,116.61,284.94,226.67,332.35a54.61,54.61,0,0,0-7.63-5.94A313.37,313.37,0,0,1,663,1027.42Z" transform="translate(-395.58 -328.27)"/><path class="cls-2" d="M999.81,432.66a15.94,15.94,0,0,1-14.54-22.54c-.47,0-.95-.05-1.43-.05a22.59,22.59,0,1,0,22.59,22.59c0-.48,0-1,0-1.43A15.88,15.88,0,0,1,999.81,432.66Zm-21.35,14.53a7.11,7.11,0,1,1,7.11-7.11A7.11,7.11,0,0,1,978.46,447.19Z" transform="translate(-395.58 -328.27)"/><circle class="cls-2" cx="208.36" cy="323.41" r="18.38"/><circle class="cls-2" cx="187.18" cy="461.75" r="20.2"/><circle class="cls-2" cx="337.08" cy="359.73" r="12.11"/><circle class="cls-2" cx="303.51" cy="400.77" r="15.12"/><circle class="cls-2" cx="664.47" cy="692.41" r="12.22" transform="translate(-609.98 -21.28) rotate(-22.5)"/><circle class="cls-2" cx="251.99" cy="486.25" r="15.12"/><circle class="cls-2" cx="217.38" cy="531.37" r="12.22"/><circle class="cls-2" cx="672.49" cy="913.76" r="12.22" transform="translate(-533.27 -208.75) rotate(-9.22)"/><path class="cls-2" d="M1331.11,655.8c-4.24-2.7-5.79-5.74-8.36-12.8-10.61-45-27.78-71.67-49.93-87.6-12.19-5.72-32.31-10-52.63,2.23-21.83,13.13-32.31,32.62-22.74,59,.43,1.18,3,6.81,3.89,8.37-2.11,1.71-10,.87-15.27.31,8.14,11,30.49,19.26,43.85,14.54-3.32-6-7.12-11.79-9.83-18-7.91-18.21-3.64-36.66,10.05-45.48,13.33-8.57,30.41-4.13,43.94,11.44,7,7.77,26.91,42.53,29.3,66.61a7.91,7.91,0,0,1-2.57,6.69c-2.29,2.05-3.63,3.33-5.59,4.86-13.11,10.21-18.73,25.15-16.64,41.56A41.14,41.14,0,0,0,1289.22,730a45.76,45.76,0,0,0,25.31,15.65c1.38,1.44,1.46,3.35,1.37,6.77q-6,223.07-193.68,343.61c-9.16,5.89-18.94,10.79-30.27,17.18,2.61-31.08-14.39-49-35.31-64.56-1.11-.82-2.09-1.81-3.18-2.65-11.29-8.69-17.42-20.4-19.3-34.27-1.72-12.65-2.61-25.41-4.25-38.07-3.34-25.81-21.66-44.74-47.39-44.56-13.51.09-27.89,5.21-40.17,11.4a94,94,0,0,0-30.77,24.84c-22.58,27.93-43.45,57.23-65.27,85.78-10,13.13-19.92,26.53-31.34,38.39-10.1,10.5-12.57,9.54-22.25-1.15-81.8-90.37-82.35-228-.84-318.39,11.32-12.55,24.62-23.32,37-34.9l3,1.81c-.9,3.5-1.83,7-2.71,10.51-2,8-4.86,15.92-5.87,24.06-4,32,19.73,51.33,49.87,40.22,19.07-7,37.87-15,56.18-23.82,28.93-13.92,42.54-42.3,36.4-73.91-1.41-7.3-3.94-14.39-6.25-22.62,4.26-.19,7.62-.53,11-.47,37.51.71,73.15,9.11,106.72,26,11.65,5.85,20.33,2.29,23-10.64,1.62-8,2.36-16.69.88-24.59-2.88-15.4-7.58-30.47-11.71-46.36,1.39-.71,3.44-1.9,5.61-2.83,66.54-28.59,107.28-80.1,131-146.95,3.67-10.35,2.07-18-6-25.9C1093.1,335.29,944.79,299.66,775.08,350.88a33.06,33.06,0,0,1-16.82.11c-18.37-4.67-36.44-10.56-54.78-15.35-17-4.43-28.15,1.55-36.16,18.24l15.44,5.27c.26,1.39.53,2.78.8,4.18-23.51-11.13-34.35,5.17-46.49,18.22-8.79,9.46-17.09,19.38-26.22,29.78l13.26,4.6c-7.05,1.67-16.67,1-20.25,5.31C589,439.18,576,458.63,561.64,478.36l11.63,4.2c-13.24-.22-18.58,8.26-23,18.21-2.23,5-5.11,9.79-7.54,14.75-31.44,64.16-47.39,132.37-52.83,203.29-6,77.89,6.45,152.9,42.92,222C611.47,1089.69,735.5,1170,904.54,1175.69c117,3.94,218.33-37.44,302.25-118.21,85.71-82.52,128.57-184.74,129.94-303.93,0-4.34.93-6.92,2.89-9.29a45.73,45.73,0,0,0-8.51-88.46ZM912.84,772.32c-15.57,6.56-31.11,13.29-47.05,18.85-15.44,5.38-24.84-3.15-21.12-19.08A493.58,493.58,0,0,1,859,721.34c1.58-4.54,8.44-7.25,12.88-10.8l3.47,2.14q-1.59,20.09-3.19,40.18l1.88.57c3.07-10.75,6.9-21.35,9.06-32.28,3.51-17.81,3.41-18.24,24.33-21q1.41,15.57,2.84,31.09l1.6.18c1.68-9,3.88-18,4.88-27.11.85-7.84,5.86-8.53,11.92-9.91,6.69-1.53,8.46,2.35,10.63,6.86C954.26,732.38,944.46,759,912.84,772.32Zm282.28-266c-24,48.6-58.7,86.38-109.76,107.5-8.18,3.39-13.09,1.89-15.27-7.84,48.71-22.77,85.24-57.1,103.1-110.59-30.58-9.86-60.48-8.69-91.49-3.88,24.66-18.42,96.89-24.1,123.5-9.49C1201.92,490,1199,498.43,1195.12,506.33ZM514.88,818.22c-31.72-198.28,80.81-370,242.23-437.65,169.38-71,342.7-8.19,421.81,71.57-2.83.39-5,1-7.19.94-56.9-2.41-108.32,14.87-155.91,44.51C1001,506.83,987.16,518,974,529.48c-9.84,8.58-8.12,14.94,2.95,21.92,37.11,23.41,67.9,53.15,89.75,91.46,8.6,15.08,14.46,31.21,13.47,51.1-4.59-1.74-7.76-2.86-10.87-4.12-56.35-22.85-113.83-27-172.3-9.51-9.37,2.8-15.33-1.64-21.76-6-56.33-37.71-79-98.51-61.18-164.49a181.91,181.91,0,0,1,11.24-31.06C830,469,836.52,460,842,451.1c-15.58,2.58-22.5,10.31-45,51.35-7.52-2.45-15.21-5.14-23-7.45-26.32-7.78-52.83-14.15-80.45-7.19-27.46,6.92-41,28-34.11,55.48,4.83,19.42,3.46,37.9-.91,57.2a96.58,96.58,0,0,0-.47,37.54c2.63,14.55,13.68,21.6,28.54,22.37,24.83,1.3,46.69-8.29,67.82-19.49,14.59-7.73,28.41-16.93,43.71-26.16,13.76,31,34.61,56.54,64,76.67-88.69,46.22-142.78,115.62-151,215.3C703.07,1006.11,743.9,1084,824,1144.32,688,1117.91,543.6,997.72,514.88,818.22Zm228.93-283.3c12.54,2.4,25,5,37.59,7.3,5.37,1,7.31,3.57,7.13,9.19-.2,6.14-3.37,7.18-8.44,7.83-19,2.43-38,5.23-57,7.9.1,1.16.21,2.33.32,3.5,12.4,0,24.8,0,37.2,0,4.48,0,9.08-.27,13.41.61,5,1,12.64-3.21,14.31,5.75,1.56,8.31,3.8,15.68-6.24,22.31C756,616.52,730,633.17,698.56,638.78c-17.44,3.12-23.93-2.82-22.39-20.64A54.68,54.68,0,0,1,678.51,606a115.65,115.65,0,0,0,1.74-66.27c-4.48-17.21,2.57-29.76,20.32-31.4,17.51-1.62,35.58.69,53.19,2.94,10.11,1.3,19.71,6.15,29.67,9,7.8,2.2,10.34,6.17,6.23,13-19.55-1.54-38-3.06-56.55-4.4a12.31,12.31,0,0,0-8.42,2.69C731.06,532.66,737.46,533.7,743.81,534.92Zm317.34,587.26a28.37,28.37,0,0,1-4,3.27c-24.25,15.27-51.71,19.54-81.19,24.87,16.16-17.84,30.29-33.43,44.43-49l-2.27-2.18c-9,7.18-17.86,14.6-27.11,21.49-10.79,8-22.34,15.06-32.82,23.46-16.1,12.88-34.61,11-56.69,11.08,30.32-32.41,53.06-66.34,66.3-107.59-13.26,17.72-25,34.8-38.21,50.66-12.55,15.08-26.84,28.7-39.94,43.35-6.17,6.91-12.2,7.45-19.82,2.86-5.25-3.17-11-5.5-18.54-9.18,37.76-25.47,63.81-57.49,72.79-103.2-8.13,12.71-15,24.23-22.64,35.23-13.92,20-30.94,37.09-51.67,50.13-14.51,9.14-15.09,8.91-28.89-3.85,6.92-6.94,14.74-13.2,20.58-21,15.54-20.67,29.72-42.37,45.4-62.93,14.62-19.15,29.44-38.35,46.2-55.57,9.28-9.55,22-16.82,34.43-22,19.29-8,36.37,1.83,40.62,22.27,2.65,12.77,3.16,26,4.78,39,2.89,23.29,14.56,41.05,33.35,54.94a88.65,88.65,0,0,1,19.49,19.66C1074.29,1100,1072,1112.18,1061.15,1122.18Zm263.47-396.45a24.67,24.67,0,1,1,24.66-24.67A24.67,24.67,0,0,1,1324.62,725.73Z" transform="translate(-395.58 -328.27)"/><path class="cls-3" d="M766.78,837.85c-32.69,37.36-28.24,181.66,36.71,246.11,3.68,3.65,32.65-43.69,66.94-89.34,36.08-48,74.75-90,128.53-77.64,67.61,15.59,35.34,101.39,56,112.36,62.59,33.22,38.08,66.44,47.78,60.84,174.09-100.43,201.32-291.9,193.48-297.4-21.49-15.09-121.43-71.23-319.27,43.58C852,908.89,769.4,834.86,766.78,837.85ZM795.55,939.7A16.4,16.4,0,1,1,812,923.3,16.39,16.39,0,0,1,795.55,939.7Zm34.71,46.9a14.35,14.35,0,1,1,14.34-14.35A14.36,14.36,0,0,1,830.26,986.6Zm41.28-70.36a15.12,15.12,0,1,1,15.12-15.12A15.12,15.12,0,0,1,871.54,916.24Zm291-28.75a17.16,17.16,0,1,1-17.16,17.16A17.17,17.17,0,0,1,1162.5,887.49Zm-45.11-56.78A23.36,23.36,0,1,1,1094,854.06,23.34,23.34,0,0,1,1117.39,830.71Zm-9,98.51A14.35,14.35,0,1,1,1094,943.56,14.34,14.34,0,0,1,1108.38,929.22Z" transform="translate(-395.58 -328.27)"/><text class="cls-4" transform="translate(0 1170.77)">CASTIFY</text></svg>