<svg id="Layer_1" data-name="Layer 1" xmlns="http://www.w3.org/2000/svg" viewBox="0 0 1419.18 1364.17"><defs><style>.cls-1{fill:none;}.cls-2{fill:#292929;}.cls-3{fill:#b4b4b4;opacity:0.5;}</style></defs><title>Castify</title><path class="cls-1" d="M1148,1493c-30.24-22.34-49-50.93-53.67-88.4-2.6-20.91-3.42-42.17-7.69-62.72-6.85-32.9-34.33-48.75-65.37-35.84-20,8.35-40.47,20.06-55.42,35.42-27,27.71-50.81,58.62-74.33,89.44-25.24,33.07-48.06,68-73.07,101.26-9.39,12.49-22,22.57-33.12,33.74,22.2,20.53,23.15,20.89,46.49,6.2,33.36-21,60.76-48.41,83.15-80.68,12.29-17.7,23.36-36.25,36.44-56.7-14.46,73.56-56.38,125.08-117.14,166.08,12.12,5.92,21.39,9.67,29.84,14.77,12.27,7.4,22,6.52,31.89-4.6,21.08-23.58,44.08-45.49,64.28-69.76,21.25-25.53,40.14-53,61.49-81.54-21.31,66.4-57.91,121-106.7,173.15,35.53-.19,65.33,2.91,91.23-17.83,16.87-13.51,35.46-24.84,52.82-37.76,14.88-11.07,29.12-23,43.64-34.57l3.64,3.51-71.5,78.88c47.44-8.57,91.64-15.45,130.66-40a46.25,46.25,0,0,0,6.45-5.27c17.52-16.09,21.15-35.67,7.36-55.12A142.7,142.7,0,0,0,1148,1493Z" transform="translate(-250.41 -302.09)"/><path class="cls-1" d="M608.88,1233c13.17-160.41,100.22-272.09,243-346.47-47.37-32.41-80.92-73.57-103.07-123.39-24.62,14.85-46.85,29.66-70.34,42.1-34,18-69.18,33.46-109.14,31.37-23.91-1.25-41.71-12.6-45.93-36-3.53-19.56-3.62-41.11.76-60.42,7-31,9.23-60.8,1.45-92-11-44.25,10.7-78.16,54.9-89.29,44.46-11.2,87.11-.94,129.48,11.58,12.56,3.71,24.93,8.05,37,12,36.13-66,47.27-78.49,72.35-82.64-8.82,14.36-19.36,28.79-27,44.63a292.21,292.21,0,0,0-18.1,50c-28.72,106.18,7.8,204,98.45,264.71,10.36,6.94,19.95,14.09,35,9.58,94.1-28.19,186.6-21.47,277.29,15.29,5,2,10.1,3.84,17.5,6.64,1.59-32-7.85-58-21.69-82.23-35.16-61.66-84.72-109.53-144.43-147.19-17.81-11.23-20.58-21.48-4.74-35.27,21.26-18.52,43.49-36.46,67.37-51.33,76.6-47.69,159.34-75.51,250.91-71.62,3.48.15,7-.89,11.57-1.52C1234.22,373.07,955.29,272,682.71,386.24,422.93,495.11,241.84,771.47,292.9,1090.56c46.21,288.87,278.61,482.3,497.42,524.8C661.45,1518.27,595.74,1392.94,608.88,1233Zm34.48-371.46A19.49,19.49,0,1,1,623.88,881,19.48,19.48,0,0,1,643.36,861.52Zm-54,61.19A24.33,24.33,0,1,1,565,947,24.33,24.33,0,0,1,589.34,922.71Zm-23.13,321.61a19.67,19.67,0,1,1-19.67-19.67A19.67,19.67,0,0,1,566.21,1244.32Zm-59.77-135.39a24.33,24.33,0,1,1,24.32-24.32A24.32,24.32,0,0,1,506.44,1108.93Zm27.19-240.5A19.67,19.67,0,1,1,514,888.1,19.67,19.67,0,0,1,533.63,868.43Zm514-362a36.35,36.35,0,1,1,0-72.69c.77,0,1.53,0,2.29.08a25.65,25.65,0,0,0,34,34c.05.76.08,1.52.08,2.3A36.34,36.34,0,0,1,1047.6,506.42ZM306.17,1018.24C291.85,742.11,454.65,514.4,666.84,415.91c236.58-109.8,488.12-52.62,634.46,62.24-38.82,10.4-77.76,20.92-116.79,31.11a21.24,21.24,0,0,1-11.18-.69c-19.56-6.27-39.14-12.52-58.34-19.76-3.94-1.48-8.38-6.79-9.07-10.93-5.48-33-21.18-50.39-49.78-53.55-26-2.88-45.51,11.29-56.81,41.12-.57,1.52-1.42,2.93-.91,1.9-46.29,3.68-91.2,5.51-135.62,11.2-58.8,7.54-114.39,26.71-168,52.2-10.62,5-24.38,6.36-36.3,5.23-29.51-2.78-58.61-4.81-87.58,3.7-50.64,14.87-78.52,57.24-66.24,108.6,6.42,26.86,9.27,30.54-13.56,69-9.21,15.55-18.78,31.4-26.93,47.79-4.28,8.61-8.66,12.24-19.06,11-24.34-2.91-45.21,10.41-52.66,31.66-7.59,21.67-.19,44.91,20.24,58.23,8,5.2,9.57,9.79,7.83,18.86-5.95,31.06-11.05,62.29-15.76,93.55-1.26,8.43-3.05,13.42-12.51,16.28-27,8.15-41,27.23-40.77,52.16.29,24.69,15.1,43.45,42.38,50.47,11.28,2.91,11.21,10.06,12.21,18.43,13.71,115.07,53.72,219.69,125.16,311.49a504.34,504.34,0,0,0,127.41,116.3A88.41,88.41,0,0,1,671,1553.1C493.82,1476.79,319.92,1283.46,306.17,1018.24Zm128.47,27a32.52,32.52,0,1,1-32.51-32.52A32.52,32.52,0,0,1,434.64,1045.19Zm-28-222.65a29.59,29.59,0,1,1,29.59,29.59A29.59,29.59,0,0,1,406.63,822.54Zm44.1,315a19.67,19.67,0,1,1-19.67,19.67A19.67,19.67,0,0,1,450.73,1137.55Z" transform="translate(-250.41 -302.09)"/><path class="cls-1" d="M1038.93,470.58A11.44,11.44,0,1,0,1050.37,482,11.44,11.44,0,0,0,1038.93,470.58Z" transform="translate(-250.41 -302.09)"/><path class="cls-1" d="M644.09,624.89c29.78,2.14,59.54,4.59,91,7.07,6.61-11.07,2.51-17.46-10-21-16-4.53-31.49-12.33-47.74-14.41-28.35-3.63-57.43-7.35-85.62-4.74-28.55,2.63-39.9,22.83-32.68,50.54,9.39,36.08,8.6,71.32-2.82,106.64a89.16,89.16,0,0,0-3.76,19.59c-2.47,28.67,8,38.23,36,33.22,50.57-9,92.5-35.83,134.48-63.5,16.16-10.66,12.55-22.53,10-35.9-2.69-14.42-14.92-7.62-23-9.25-7-1.41-14.38-.95-21.59-1-20-.1-39.91,0-59.87,0L628,686.5c30.55-4.29,61.08-8.81,91.68-12.71,8.17-1,13.26-2.73,13.59-12.6.29-9.06-2.83-13.22-11.48-14.8-20.2-3.69-40.31-7.89-60.48-11.75-10.24-2-20.53-3.63-30.79-5.44C635.36,625.69,639.77,624.58,644.09,624.89Z" transform="translate(-250.41 -302.09)"/><path class="cls-1" d="M1205.08,564.8c49.89-7.74,98-9.62,147.23,6.24-28.74,86.1-87.53,141.34-165.92,178,3.51,15.65,11.4,18.08,24.58,12.63,82.16-34,138-94.8,176.64-173,6.28-12.71,10.93-26.24,16.22-39.1C1361,526,1244.76,535.16,1205.08,564.8Z" transform="translate(-250.41 -302.09)"/><circle class="cls-1" cx="1596" cy="902.02" r="39.69" transform="translate(-382.71 -11.49) rotate(-9.99)"/><path class="cls-1" d="M958.78,891.26c-9.76,2.23-17.83,3.34-19.2,16-1.6,14.65-5.14,29.09-7.84,43.62l-2.59-.29q-2.28-25-4.57-50c-33.66,4.47-33.5,5.16-39.15,33.82C882,951.94,875.8,969,870.85,986.3l-3-.92L873,920.72l-5.6-3.44c-7.14,5.71-18.17,10.07-20.72,17.38-9.29,26.67-16.62,54.12-23,81.67-6,25.63,9.14,39.36,34,30.7,25.65-8.94,50.66-19.78,75.72-30.33,50.88-21.41,66.66-64.28,42.55-114.39C972.39,895.05,969.54,888.8,958.78,891.26Z" transform="translate(-250.41 -302.09)"/><circle class="cls-1" cx="1012.1" cy="846.16" r="37.58"/><circle class="cls-1" cx="997.6" cy="990.19" r="23.08"/><circle class="cls-1" cx="616.46" cy="921.88" r="24.33"/><circle class="cls-1" cx="1335.1" cy="1229.66" r="27.61" transform="translate(-549.46 137.57) rotate(-16.85)"/><circle class="cls-1" cx="550.02" cy="1036.36" r="23.08"/><circle class="cls-1" cx="494.17" cy="957.58" r="26.39"/><path class="cls-2" d="M531.26,1427.23c-71.44-91.8-111.45-196.42-125.16-311.49-1-8.37-.93-15.52-12.21-18.43-27.28-7-42.09-25.78-42.38-50.47-.28-24.93,13.79-44,40.77-52.16,9.46-2.86,11.25-7.85,12.51-16.28,4.71-31.26,9.81-62.49,15.76-93.55,1.74-9.07.14-13.66-7.83-18.86-20.43-13.32-27.83-36.56-20.24-58.23,7.45-21.25,28.32-34.57,52.66-31.66,10.4,1.25,14.78-2.38,19.06-11,8.15-16.39,17.72-32.24,26.93-47.79,22.83-38.5,20-42.18,13.56-69-12.28-51.36,15.6-93.73,66.24-108.6,29-8.51,58.07-6.48,87.58-3.7,11.92,1.13,25.68-.18,36.3-5.23,53.6-25.49,109.19-44.66,168-52.2,44.42-5.69,89.33-7.52,135.62-11.2-.51,1,.34-.38.91-1.9,11.3-29.83,30.86-44,56.81-41.12,28.6,3.16,44.3,20.51,49.78,53.55.69,4.14,5.13,9.45,9.07,10.93,19.2,7.24,38.78,13.49,58.34,19.76a21.24,21.24,0,0,0,11.18.69c39-10.19,78-20.71,116.79-31.11-146.34-114.86-397.88-172-634.46-62.24-212.19,98.49-375,326.2-360.67,602.33C319.92,1283.46,493.82,1476.79,671,1553.1a88.41,88.41,0,0,0-12.28-9.57A504.34,504.34,0,0,1,531.26,1427.23Z" transform="translate(-250.41 -302.09)"/><path class="cls-2" d="M1073.29,470.08a25.67,25.67,0,0,1-23.4-36.27c-.76-.05-1.52-.08-2.29-.08a36.35,36.35,0,1,0,36.34,36.35c0-.78,0-1.54-.08-2.3A25.59,25.59,0,0,1,1073.29,470.08Zm-34.36,23.38A11.44,11.44,0,1,1,1050.37,482,11.44,11.44,0,0,1,1038.93,493.46Z" transform="translate(-250.41 -302.09)"/><circle class="cls-2" cx="185.81" cy="520.46" r="29.59"/><circle class="cls-2" cx="151.72" cy="743.1" r="32.51"/><circle class="cls-2" cx="392.96" cy="578.91" r="19.49"/><circle class="cls-2" cx="338.93" cy="644.95" r="24.33"/><circle class="cls-2" cx="533.63" cy="888.1" r="19.67" transform="translate(-549.65 -30.27) rotate(-22.5)"/><circle class="cls-2" cx="256.03" cy="782.52" r="24.33"/><circle class="cls-2" cx="200.33" cy="855.13" r="19.67"/><circle class="cls-2" cx="546.54" cy="1244.32" r="19.67" transform="translate(-442.67 -198.47) rotate(-9.22)"/><path class="cls-2" d="M1606.45,829.19c-6.82-4.36-9.31-9.25-13.46-20.61-17.06-72.49-44.7-115.34-80.34-141-19.62-9.21-52-16.08-84.7,3.58-35.13,21.13-52,52.5-36.59,94.89.69,1.9,4.8,11,6.25,13.47-3.4,2.75-16.17,1.4-24.58.49,13.11,17.78,49.07,31,70.58,23.41-5.34-9.69-11.46-19-15.82-29-12.73-29.31-5.87-59,16.17-73.18,21.45-13.8,48.94-6.65,70.72,18.41,11.31,12.5,43.3,68.43,47.15,107.2a12.73,12.73,0,0,1-4.14,10.76c-3.68,3.3-5.84,5.36-9,7.82-21.09,16.42-30.14,40.47-26.78,66.88a66.14,66.14,0,0,0,17.14,36.31,73.48,73.48,0,0,0,40.72,25.18c2.22,2.33,2.36,5.39,2.21,10.9q-9.6,359-311.69,553c-14.74,9.46-30.49,17.35-48.72,27.64,4.2-50-23.15-78.8-56.83-103.89-1.78-1.33-3.36-2.92-5.12-4.27-18.16-14-28-32.83-31.06-55.15-2.76-20.36-4.19-40.89-6.83-61.27-5.38-41.54-34.86-72-76.26-71.72-21.74.16-44.89,8.39-64.65,18.35a151.29,151.29,0,0,0-49.52,40c-36.34,45-69.93,92.12-105,138.06-16.14,21.13-32,42.69-50.42,61.78-16.26,16.9-20.24,15.36-35.81-1.85-131.64-145.44-132.53-366.94-1.35-512.38,18.22-20.2,39.61-37.54,59.57-56.17,2.55,1.52,2.34,1.39,4.9,2.9-1.46,5.64-2.95,11.27-4.37,16.92-3.25,12.89-7.81,25.63-9.44,38.72-6.43,51.51,31.76,82.61,80.26,64.73,30.68-11.32,60.93-24.15,90.4-38.34,46.56-22.4,68.47-68.07,58.59-118.94-2.28-11.75-6.35-23.16-10.06-36.39,6.85-.32,12.25-.87,17.65-.77,60.36,1.14,117.71,14.67,171.75,41.83,18.74,9.41,32.72,3.69,36.95-17.13,2.6-12.82,3.79-26.85,1.41-39.56-4.63-24.79-12.21-49-18.85-74.62,2.25-1.14,5.55-3,9-4.54,107.09-46,172.64-128.91,210.76-236.5,5.9-16.66,3.33-28.94-9.67-41.68-204.13-200-442.8-257.35-715.92-174.93-8.35,2.52-18.55,2.34-27.07.18-29.57-7.51-58.64-17-88.16-24.7-27.28-7.13-45.3,2.48-58.19,29.34l24.84,8.49q.66,3.36,1.3,6.72c-37.84-17.91-55.29,8.33-74.82,29.34C475.38,403.05,462,419,447.34,435.76l21.34,7.39c-11.35,2.69-26.83,1.59-32.59,8.55-23.92,28.87-44.9,60.17-67.94,91.93l18.7,6.76c-21.3-.35-29.89,13.29-37,29.3-3.59,8.11-8.22,15.76-12.13,23.74-50.61,103.26-76.27,213-85,327.15-9.61,125.36,10.37,246.06,69.06,357.2,126.56,239.66,326.17,368.9,598.2,378.06,188.2,6.35,351.37-60.26,486.41-190.24,137.94-132.79,206.91-297.3,209.12-489.11.08-7,1.49-11.13,4.65-15a73.58,73.58,0,0,0-13.7-142.35ZM933.33,1016.7c-25.06,10.55-50.07,21.39-75.72,30.33-24.85,8.66-40-5.07-34-30.7,6.41-27.55,13.74-55,23-81.67,2.55-7.31,13.58-11.67,20.72-17.38l5.6,3.44-5.13,64.66,3,.92c4.95-17.3,11.12-34.36,14.58-51.95,5.65-28.66,5.49-29.35,39.15-33.82q2.29,25,4.57,50l2.59.29c2.7-14.53,6.24-29,7.84-43.62,1.37-12.62,9.44-13.73,19.2-16,10.76-2.46,13.61,3.79,17.1,11C1000,952.42,984.21,995.29,933.33,1016.7Zm454.28-428.07c-38.67,78.22-94.48,139-176.64,173-13.18,5.45-21.07,3-24.58-12.63,78.39-36.64,137.18-91.88,165.92-178-49.21-15.86-97.34-14-147.23-6.24,39.68-29.64,155.93-38.79,198.75-15.27C1398.54,562.39,1393.89,575.92,1387.61,588.63ZM292.9,1090.56c-51.06-319.09,130-595.45,389.81-704.32C955.29,272,1234.22,373.07,1361.53,501.43c-4.56.63-8.09,1.67-11.57,1.52-91.57-3.89-174.31,23.93-250.91,71.62-23.88,14.87-46.11,32.81-67.37,51.33-15.84,13.79-13.07,24,4.74,35.27,59.71,37.66,109.27,85.53,144.43,147.19,13.84,24.27,23.28,50.22,21.69,82.23-7.4-2.8-12.5-4.61-17.5-6.64-90.69-36.76-183.19-43.48-277.29-15.29-15.07,4.51-24.66-2.64-35-9.58-90.65-60.68-127.17-158.53-98.45-264.71a292.21,292.21,0,0,1,18.1-50c7.59-15.84,18.13-30.27,27-44.63-25.08,4.15-36.22,16.6-72.35,82.64-12.1-3.93-24.47-8.27-37-12-42.37-12.52-85-22.78-129.48-11.58-44.2,11.13-65.9,45-54.9,89.29,7.78,31.25,5.58,61-1.45,92-4.38,19.31-4.29,40.86-.76,60.42,4.22,23.4,22,34.75,45.93,36,40,2.09,75.13-13.35,109.14-31.37,23.49-12.44,45.72-27.25,70.34-42.1,22.15,49.82,55.7,91,103.07,123.39-142.74,74.38-229.79,186.06-243,346.47-13.14,160,52.57,285.29,181.44,382.38C571.51,1572.86,339.11,1379.43,292.9,1090.56ZM661.32,634.64c20.17,3.86,40.28,8.06,60.48,11.75,8.65,1.58,11.77,5.74,11.48,14.8-.33,9.87-5.42,11.56-13.59,12.6-30.6,3.9-61.13,8.42-91.68,12.71l.51,5.62c20,0,39.91-.06,59.87,0,7.21,0,14.61-.42,21.59,1,8.1,1.63,20.33-5.17,23,9.25,2.51,13.37,6.12,25.24-10,35.9-42,27.67-83.91,54.47-134.48,63.5-28.06,5-38.5-4.55-36-33.22A89.16,89.16,0,0,1,556.21,749c11.42-35.32,12.21-70.56,2.82-106.64-7.22-27.71,4.13-47.91,32.68-50.54,28.19-2.61,57.27,1.11,85.62,4.74,16.25,2.08,31.72,9.88,47.74,14.41,12.54,3.54,16.64,9.93,10,21-31.47-2.48-61.23-4.93-91-7.07-4.32-.31-8.73.8-13.56,4.31C640.79,631,651.08,632.68,661.32,634.64ZM1172,1579.73a46.25,46.25,0,0,1-6.45,5.27c-39,24.56-83.22,31.44-130.66,40l71.5-78.88-3.64-3.51c-14.52,11.56-28.76,23.5-43.64,34.57-17.36,12.92-35.95,24.25-52.82,37.76-25.9,20.74-55.7,17.64-91.23,17.83,48.79-52.16,85.39-106.75,106.7-173.15-21.35,28.53-40.24,56-61.49,81.54-20.2,24.27-43.2,46.18-64.28,69.76-9.93,11.12-19.62,12-31.89,4.6-8.45-5.1-17.72-8.85-29.84-14.77,60.76-41,102.68-92.52,117.14-166.08-13.08,20.45-24.15,39-36.44,56.7-22.39,32.27-49.79,59.68-83.15,80.68-23.34,14.69-24.29,14.33-46.49-6.2,11.13-11.17,23.73-21.25,33.12-33.74,25-33.26,47.83-68.19,73.07-101.26,23.52-30.82,47.38-61.73,74.33-89.44,14.95-15.36,35.38-27.07,55.42-35.42,31-12.91,58.52,2.94,65.37,35.84,4.27,20.55,5.09,41.81,7.69,62.72,4.65,37.47,23.43,66.06,53.67,88.4a142.7,142.7,0,0,1,31.37,31.65C1193.15,1544.06,1189.52,1563.64,1172,1579.73Zm424-638a39.7,39.7,0,1,1,39.7-39.7A39.7,39.7,0,0,1,1596,941.72Z" transform="translate(-250.41 -302.09)"/><path class="cls-3" d="M698.28,1122.15c-52.61,60.12-45.45,292.35,59.07,396.07,5.92,5.87,52.54-70.31,107.73-143.77,58.07-77.29,120.29-144.9,206.84-125,108.81,25.08,56.87,163.17,90.11,180.82,100.72,53.46,61.28,106.93,76.89,97.92,280.17-161.64,324-469.76,311.37-478.62-34.59-24.28-195.43-114.63-513.81,70.13C835.33,1236.48,702.48,1117.35,698.28,1122.15Zm46.3,163.91A26.39,26.39,0,1,1,771,1259.67,26.38,26.38,0,0,1,744.58,1286.06Zm55.85,75.47a23.09,23.09,0,1,1,23.08-23.08A23.08,23.08,0,0,1,800.43,1361.53Zm66.44-113.23A24.33,24.33,0,1,1,891.19,1224,24.33,24.33,0,0,1,866.87,1248.3Zm468.23-46.25a27.61,27.61,0,1,1-27.61,27.61A27.61,27.61,0,0,1,1335.1,1202.05Zm-72.59-91.39a37.59,37.59,0,1,1-37.58,37.58A37.58,37.58,0,0,1,1262.51,1110.66ZM1248,1269.19a23.09,23.09,0,1,1-23.08,23.09A23.09,23.09,0,0,1,1248,1269.19Z" transform="translate(-250.41 -302.09)"/></svg>