<svg id="Layer_1" data-name="Layer 1" xmlns="http://www.w3.org/2000/svg" viewBox="0 0 1605.1 1237.22"><title>AutoLux02</title><path d="M1121.4,751.5c100.1,15,194.7,41.8,289.8,84.3-92.5,38.5-164.6,97.3-222.5,173.1-57.6,75.4-96.2,158.9-102.6,257.6,101.1-23.3,185.2-70.7,255.4-142.3s115.8-157,137.5-258.4c30.5,17.1,58.7,32.4,85.9,49.2,3.4,2.1,3.9,13.1,2.2,19q-45.15,157.8-163.2,272.3-136.8,132.45-324.6,166.7c-309.5,56.7-618.8-137.3-702.9-440.5-4.5-16.3-2.9-25.5,13.5-33.2,24.4-11.6,47.6-25.8,72.7-39.6,51.8,213.8,181.3,349.8,395.8,409.6-6.7-102.7-45.6-187.8-105.2-264S620.7,869.1,528.9,832.4c94-41.8,191.6-68,295.6-83-5.6,64.8,14.5,117.3,68.8,153.1,30.6,20.2,65,25.3,101,21C1058.2,916,1130.4,856.1,1121.4,751.5Z" transform="translate(-160.9 -145.62)"/><path d="M1762.9,949c-44.4-26-89-51.8-133.3-77.9-122.6-72.3-250.2-132.8-389.4-165.6-45.2-10.6-91.4-16.3-136.9-25.3-10.4-2.1-21.7-6.6-29.6-13.5-60.2-52.7-143.3-52.4-202.6.9a45,45,0,0,1-23.8,10.2c-127.1,13.7-250.8,42.9-366,98C389,820,300.6,872.3,210.6,921.1c-15.9,8.6-31.2,18.3-49.7,25.5,2.9-6.2,5.4-12.6,8.8-18.5C211.6,856,269,797.8,335,747.7c13.9-10.5,19.5-21.5,20.9-39.1,10.2-123,53.1-234.3,131.8-329.3,150.9-182,346.3-258.8,579.8-226.5,275.6,38.1,493.1,269.7,518.9,547.3,3.1,33.7,13.9,56.9,40.4,77.6,49.4,38.6,90.1,85.9,123,139.5,5.8,9.5,10.9,19.4,16.2,29.1ZM468.6,657c338.2-172.2,673-166.3,1006.2,10.6-24.6-179.6-205.8-417-497-420.2C690.1,244.3,497.7,467.5,468.6,657Z" transform="translate(-160.9 -145.62)"/><path d="M1045.5,776.8c-.3,41.9-32.7,73.2-75.2,72.7-39.3-.5-71.4-33.8-71.2-73.7S933.4,702,973,702.6a73.22,73.22,0,0,1,72.5,74.1Z" transform="translate(-160.9 -145.62)"/></svg>