<svg id="Layer_1" data-name="Layer 1" xmlns="http://www.w3.org/2000/svg" viewBox="0 0 1813.69 401.73"><defs><style>.cls-1{isolation:isolate;font-size:193.02px;font-family:TwCenMT-Bold, Tw Cen MT;font-weight:700;letter-spacing:0.18em;}.cls-2{letter-spacing:0.22em;}.cls-3{letter-spacing:0.21em;}.cls-4{letter-spacing:0.22em;}</style></defs><title>AutoLux04</title><path d="M366.7,698.2a357.73,357.73,0,0,1,94.1,27.4c-30,12.5-53.4,31.6-72.3,56.2-18.7,24.5-31.2,51.6-33.3,83.6,32.8-7.6,60.1-23,82.9-46.2s37.6-51,44.6-83.9c9.9,5.6,19.1,10.5,27.9,16,1.1.7,1.3,4.3.7,6.2a196.06,196.06,0,0,1-53,88.4Q413.9,889,352.9,900C252.4,918.4,152,855.4,124.6,757c-1.5-5.3-.9-8.3,4.4-10.8,7.9-3.8,15.5-8.4,23.6-12.9,16.8,69.4,58.9,113.6,128.5,133-2.2-33.3-14.8-61-34.2-85.7s-43-44.2-72.8-56.1c30.5-13.6,62.2-22.1,96-26.9-1.8,21,4.7,38.1,22.3,49.7,9.9,6.6,21.1,8.2,32.8,6.8C346.2,751.6,369.6,732.1,366.7,698.2Z" transform="translate(-54.8 -501.46)"/><path d="M575,762.3c-14.4-8.4-28.9-16.8-43.3-25.3-39.8-23.5-81.2-43.1-126.4-53.8-14.7-3.5-29.7-5.3-44.5-8.2-3.4-.7-7.1-2.1-9.6-4.4-19.5-17.1-46.5-17-65.8.3a14.79,14.79,0,0,1-7.7,3.3c-41.3,4.5-81.4,13.9-118.9,31.8-30,14.3-58.7,31.3-87.9,47.2-5.1,2.8-10.1,6-16.1,8.3a47.26,47.26,0,0,1,2.9-6c13.6-23.4,32.3-42.3,53.7-58.6,4.5-3.4,6.3-7,6.8-12.7,3.3-40,17.2-76.1,42.8-106.9,49-59.1,112.5-84,188.3-73.5,89.5,12.4,160.1,87.6,168.5,177.7,1,10.9,4.5,18.5,13.1,25.2A168,168,0,0,1,570.8,752c1.9,3.1,3.5,6.3,5.3,9.5ZM154.7,667.5c109.8-55.9,218.5-54,326.7,3.4-8-58.3-66.8-135.4-161.4-136.4-93.4-1-155.8,71.5-165.3,133Z" transform="translate(-54.8 -501.46)"/><path d="M342,706.4c-.1,13.6-10.6,23.8-24.4,23.6a23.74,23.74,0,0,1-23.1-23.9c.1-12.9,11.1-24,24-23.8A23.73,23.73,0,0,1,342,706.4Z" transform="translate(-54.8 -501.46)"/><text class="cls-1" transform="translate(572.53 281.33) scale(1.13 1)">A<tspan class="cls-2" x="166.76" y="0">U</tspan><tspan class="cls-3" x="330.98" y="0">T</tspan><tspan class="cls-4" x="463.24" y="0">OLUX</tspan></text></svg>