<svg id="Layer_1" data-name="Layer 1" xmlns="http://www.w3.org/2000/svg" viewBox="0 0 1241.15 1073.3"><defs><style>.cls-1{isolation:isolate;font-size:193.02px;font-family:TwCenMT-Bold, Tw Cen MT;font-weight:700;letter-spacing:0.18em;}.cls-2{letter-spacing:0.22em;}.cls-3{letter-spacing:0.21em;}</style></defs><title>AutoLux01</title><path d="M1032.5,634.9a704.63,704.63,0,0,1,185.8,54c-59.3,24.7-105.5,62.4-142.7,110.9-36.9,48.4-61.7,101.8-65.8,165.1,64.8-14.9,118.7-45.4,163.8-91.2S1247.8,773,1261.7,708c19.6,11,37.6,20.8,55.1,31.6,2.2,1.4,2.5,8.4,1.4,12.2q-29,101.1-104.6,174.6-87.75,84.9-208.1,106.8c-198.4,36.3-396.7-88-450.6-282.4-2.9-10.4-1.8-16.3,8.6-21.3,15.7-7.4,30.5-16.5,46.6-25.4,33.2,137.1,116.2,224.2,253.8,262.6-4.3-65.8-29.2-120.4-67.5-169.2s-85-87.2-143.8-110.7c60.3-26.8,122.8-43.6,189.5-53.2-3.6,41.6,9.3,75.2,44.1,98.2,19.6,13,41.7,16.2,64.8,13.5C992,740.4,1038.3,702,1032.5,634.9Z" transform="translate(-343.37 -246.7)"/><path d="M1443.8,761.6q-42.75-24.9-85.4-49.9c-78.6-46.3-160.4-85.2-249.6-106.2-29-6.8-58.6-10.4-87.8-16.2-6.7-1.3-13.9-4.2-19-8.6-38.6-33.8-91.9-33.6-129.9.6a29.72,29.72,0,0,1-15.3,6.6c-81.5,8.8-160.8,27.5-234.7,62.8-59.2,28.3-115.8,61.8-173.6,93.1-10.2,5.5-20,11.8-31.9,16.4,1.9-4,3.5-8.1,5.7-11.9,26.9-46.3,63.7-83.6,106-115.7,8.9-6.8,12.5-13.8,13.4-25,6.5-78.9,34-150.2,84.5-211.1,96.8-116.6,222-165.9,371.7-145.2,176.7,24.5,316.1,172.9,332.7,350.8,2,21.6,8.9,36.5,25.9,49.8,31.6,24.8,57.8,55.1,78.8,89.5,3.7,6.1,7,12.4,10.4,18.7ZM614,574.4c216.8-110.4,431.4-106.6,645,6.8C1243.2,466,1127.1,313.9,940.4,311.8,756,309.8,632.7,452.9,614,574.4Z" transform="translate(-343.37 -246.7)"/><path d="M983.8,651.2c-.2,26.9-21,46.9-48.2,46.6-25.2-.3-45.8-21.6-45.6-47.2s22-47.3,47.4-46.9a46.8,46.8,0,0,1,46.4,47.5Z" transform="translate(-343.37 -246.7)"/><text class="cls-1" transform="translate(0 1028.34) scale(1.13 1)">A<tspan class="cls-2" x="166.76" y="0">U</tspan><tspan class="cls-3" x="330.98" y="0">T</tspan><tspan class="cls-2" x="463.24" y="0">OLUX</tspan></text></svg>