<svg id="Layer_1" data-name="Layer 1" xmlns="http://www.w3.org/2000/svg" viewBox="0 0 1603.98 374.57"><defs><style>.cls-1{fill:none;}.cls-2,.cls-4{fill:#eee;}.cls-3{fill:#ddd;opacity:0.5;}.cls-4{font-size:280px;font-family:TwCenMT-Regular, Tw Cen MT;letter-spacing:0.1em;}</style></defs><title>Castify04</title><path class="cls-1" d="M384.08,1054.43c-8.31-6.13-13.46-14-14.74-24.27-.72-5.74-.94-11.58-2.11-17.22-1.88-9-9.43-13.39-18-9.84-5.51,2.29-11.11,5.5-15.22,9.72-7.4,7.61-13.95,16.1-20.41,24.56-6.93,9.08-13.19,18.67-20.06,27.8-2.58,3.43-6,6.2-9.1,9.27,6.1,5.64,6.36,5.74,12.77,1.7A78.87,78.87,0,0,0,320.09,1054c3.37-4.86,6.41-10,10-15.57-4,20.2-15.49,34.35-32.17,45.6,3.33,1.63,5.87,2.66,8.19,4.06,3.37,2,6,1.79,8.76-1.27,5.79-6.47,12.1-12.49,17.65-19.15,5.83-7,11-14.55,16.89-22.39-5.86,18.23-15.91,33.22-29.3,47.54,9.75,0,17.94.8,25.05-4.89,4.63-3.71,9.73-6.82,14.5-10.37,4.09-3,8-6.32,12-9.49l1,1L353,1090.69c13-2.35,25.16-4.24,35.88-11a12.8,12.8,0,0,0,1.77-1.44c4.81-4.42,5.8-9.8,2-15.14A39.43,39.43,0,0,0,384.08,1054.43Z" transform="translate(-137.62 -727.45)"/><path class="cls-1" d="M236.05,983.05c3.61-44,27.51-74.71,66.71-95.14A79,79,0,0,1,274.46,854c-6.76,4.07-12.87,8.14-19.32,11.56-9.33,4.94-19,9.18-30,8.61-6.57-.34-11.45-3.46-12.61-9.89a42.68,42.68,0,0,1,.2-16.59c1.93-8.52,2.54-16.69.4-25.27-3-12.15,2.94-21.46,15.07-24.52s23.92-.26,35.56,3.18c3.45,1,6.84,2.21,10.17,3.29,9.92-18.13,13-21.55,19.86-22.69-2.42,3.94-5.31,7.91-7.4,12.26a80.52,80.52,0,0,0-5,13.72c-7.88,29.15,2.14,56,27,72.68,2.84,1.91,5.47,3.87,9.61,2.63,25.84-7.74,51.24-5.89,76.14,4.2,1.37.56,2.77,1.06,4.8,1.83.44-8.79-2.15-15.92-5.95-22.58-9.66-16.93-23.26-30.08-39.66-40.42-4.89-3.08-5.65-5.89-1.3-9.68a145.93,145.93,0,0,1,18.5-14.1c21-13.09,43.75-20.73,68.89-19.66a20.07,20.07,0,0,0,3.18-.42c-35-35.24-111.55-63-186.39-31.63-71.33,29.9-121,105.78-107,193.39,12.69,79.32,76.5,132.43,136.58,144.1C250.48,1061.38,232.44,1027,236.05,983.05Zm9.47-102a5.35,5.35,0,1,1-5.36,5.35A5.36,5.36,0,0,1,245.52,881.05Zm-14.84,16.81a6.68,6.68,0,1,1-6.68,6.68A6.68,6.68,0,0,1,230.68,897.86Zm-6.35,88.3a5.4,5.4,0,1,1-5.4-5.4A5.4,5.4,0,0,1,224.33,986.16ZM207.92,949a6.68,6.68,0,1,1,6.68-6.68A6.68,6.68,0,0,1,207.92,949Zm7.47-66a5.4,5.4,0,1,1-5.41,5.4A5.4,5.4,0,0,1,215.39,883Zm141.12-99.4a10,10,0,0,1,0-20l.63,0a7,7,0,0,0,9.33,9.33c0,.21,0,.42,0,.63A10,10,0,0,1,356.51,783.55ZM152.93,924.08C149,848.27,193.7,785.74,252,758.7c65-30.15,134-14.45,174.21,17.09-10.66,2.85-21.35,5.74-32.07,8.54a5.75,5.75,0,0,1-3.07-.19c-5.37-1.72-10.74-3.44-16-5.42a4.64,4.64,0,0,1-2.49-3c-1.5-9.08-5.81-13.84-13.67-14.71-7.12-.79-12.49,3.1-15.59,11.29-.16.42-.39.81-.25.52-12.72,1-25.05,1.52-37.24,3.08-16.15,2.07-31.41,7.33-46.13,14.33a19.81,19.81,0,0,1-10,1.44c-8.1-.76-16.09-1.32-24,1-13.91,4.09-21.56,15.72-18.19,29.82,1.76,7.38,2.54,8.39-3.72,19-2.53,4.27-5.16,8.62-7.4,13.12-1.17,2.37-2.38,3.36-5.23,3a13.25,13.25,0,0,0-14.46,8.69,13.41,13.41,0,0,0,5.56,16c2.18,1.43,2.62,2.69,2.15,5.18-1.64,8.53-3,17.1-4.33,25.69-.35,2.31-.84,3.68-3.44,4.47-7.4,2.23-11.27,7.47-11.19,14.32s4.14,11.93,11.64,13.86c3.09.79,3.07,2.76,3.35,5.06,3.76,31.59,14.75,60.32,34.36,85.52a138.67,138.67,0,0,0,35,31.94,23.67,23.67,0,0,1,3.37,2.63C204.45,1050,156.71,996.91,152.93,924.08Zm35.27,7.4a8.93,8.93,0,1,1-8.92-8.92A8.92,8.92,0,0,1,188.2,931.48Zm-7.69-61.13a8.13,8.13,0,1,1,8.13,8.13A8.13,8.13,0,0,1,180.51,870.35Zm12.11,86.5a5.4,5.4,0,1,1-5.4,5.4A5.39,5.39,0,0,1,192.62,956.85Z" transform="translate(-137.62 -727.45)"/><path class="cls-1" d="M354.13,773.71a3.14,3.14,0,1,0,3.14,3.14A3.14,3.14,0,0,0,354.13,773.71Z" transform="translate(-137.62 -727.45)"/><path class="cls-1" d="M245.71,816.08c8.18.59,16.35,1.26,25,1.94,1.82-3,.69-4.79-2.75-5.76-4.4-1.25-8.65-3.39-13.11-4-7.78-1-15.77-2-23.51-1.3s-11,6.27-9,13.87a51.16,51.16,0,0,1-.77,29.29,24.41,24.41,0,0,0-1,5.37c-.68,7.88,2.19,10.5,9.9,9.12,13.88-2.47,25.39-9.83,36.92-17.43,4.44-2.93,3.45-6.19,2.76-9.86-.74-4-4.1-2.09-6.32-2.54a30.79,30.79,0,0,0-5.93-.27c-5.48,0-11,0-16.44,0-.05-.51-.09-1-.14-1.54,8.39-1.18,16.77-2.42,25.17-3.49,2.25-.29,3.64-.75,3.73-3.46.08-2.49-.77-3.63-3.15-4.07-5.55-1-11.07-2.16-16.61-3.22-2.81-.54-5.63-1-8.45-1.5A5.45,5.45,0,0,1,245.71,816.08Z" transform="translate(-137.62 -727.45)"/><path class="cls-1" d="M399.75,799.58c13.7-2.12,26.91-2.64,40.43,1.71-7.9,23.64-24,38.81-45.56,48.87,1,4.3,3.13,5,6.75,3.47,22.56-9.33,37.88-26,48.5-47.5,1.72-3.5,3-7.21,4.45-10.74C442.56,788.93,410.64,791.44,399.75,799.58Z" transform="translate(-137.62 -727.45)"/><circle class="cls-1" cx="507.09" cy="892.18" r="10.9" transform="translate(-284.72 -625.93) rotate(-9.99)"/><path class="cls-1" d="M332.12,889.22c-2.68.61-4.89.92-5.27,4.38-.44,4-1.41,8-2.15,12l-.71-.08c-.42-4.58-.84-9.15-1.26-13.74-9.24,1.23-9.2,1.42-10.75,9.29-1,4.83-2.64,9.52-4,14.27l-.83-.26,1.41-17.75-1.54-.95c-2,1.57-5,2.77-5.69,4.78A219.26,219.26,0,0,0,295,923.56c-1.64,7,2.51,10.81,9.33,8.43,7-2.45,13.91-5.43,20.79-8.33,14-5.88,18.31-17.65,11.69-31.41C335.86,890.26,335.08,888.54,332.12,889.22Z" transform="translate(-137.62 -727.45)"/><circle class="cls-1" cx="277.9" cy="232.34" r="10.32"/><circle class="cls-1" cx="273.92" cy="271.88" r="6.34"/><circle class="cls-1" cx="169.27" cy="253.13" r="6.68"/><circle class="cls-1" cx="435.45" cy="982.14" r="7.58" transform="translate(-403.54 -559.12) rotate(-16.85)"/><circle class="cls-1" cx="151.02" cy="284.56" r="6.34"/><circle class="cls-1" cx="135.69" cy="262.93" r="7.25"/><path class="cls-2" d="M214.73,1036.38c-19.61-25.2-30.6-53.93-34.36-85.52-.28-2.3-.26-4.27-3.35-5.06-7.5-1.93-11.56-7.08-11.64-13.86s3.79-12.09,11.19-14.32c2.6-.79,3.09-2.16,3.44-4.47,1.29-8.59,2.69-17.16,4.33-25.69.47-2.49,0-3.75-2.15-5.18a13.41,13.41,0,0,1-5.56-16,13.25,13.25,0,0,1,14.46-8.69c2.85.34,4.06-.65,5.23-3,2.24-4.5,4.87-8.85,7.4-13.12,6.26-10.57,5.48-11.58,3.72-19-3.37-14.1,4.28-25.73,18.19-29.82,8-2.33,15.94-1.77,24-1a19.81,19.81,0,0,0,10-1.44c14.72-7,30-12.26,46.13-14.33,12.19-1.56,24.52-2.07,37.24-3.08-.14.29.09-.1.25-.52,3.1-8.19,8.47-12.08,15.59-11.29,7.86.87,12.17,5.63,13.67,14.71a4.64,4.64,0,0,0,2.49,3c5.28,2,10.65,3.7,16,5.42a5.75,5.75,0,0,0,3.07.19c10.72-2.8,21.41-5.69,32.07-8.54C386,744.25,316.92,728.55,252,758.7c-58.26,27-103,89.57-99,165.38C156.71,996.91,204.45,1050,253.09,1071a23.67,23.67,0,0,0-3.37-2.63A138.67,138.67,0,0,1,214.73,1036.38Z" transform="translate(-137.62 -727.45)"/><path class="cls-2" d="M363.56,773.57a7,7,0,0,1-6.42-10l-.63,0a10,10,0,1,0,10,10c0-.21,0-.42,0-.63A7.07,7.07,0,0,1,363.56,773.57ZM354.13,780a3.14,3.14,0,1,1,3.14-3.14A3.13,3.13,0,0,1,354.13,780Z" transform="translate(-137.62 -727.45)"/><circle class="cls-2" cx="51.02" cy="142.91" r="8.12"/><circle class="cls-2" cx="41.66" cy="204.04" r="8.93"/><circle class="cls-2" cx="107.9" cy="158.96" r="5.35"/><circle class="cls-2" cx="93.06" cy="177.09" r="6.68"/><circle class="cls-2" cx="215.39" cy="888.35" r="5.4" transform="translate(-461.18 -577.4) rotate(-22.5)"/><circle class="cls-2" cx="70.3" cy="214.86" r="6.68"/><circle class="cls-2" cx="55.01" cy="234.8" r="5.4"/><circle class="cls-2" cx="218.93" cy="986.16" r="5.4" transform="translate(-292.76 -679.64) rotate(-9.22)"/><path class="cls-2" d="M510,872.18c-1.88-1.2-2.56-2.54-3.7-5.66-4.68-19.91-12.27-31.67-22.06-38.71a24.38,24.38,0,0,0-23.26,1c-9.64,5.81-14.27,14.42-10,26.06.19.52,1.32,3,1.72,3.7-.94.75-4.44.38-6.75.13,3.6,4.88,13.47,8.51,19.37,6.43-1.46-2.66-3.14-5.21-4.34-8-3.49-8-1.61-16.2,4.44-20.1,5.89-3.79,13.44-1.82,19.42,5.06,3.1,3.43,11.89,18.79,12.95,29.43a3.52,3.52,0,0,1-1.14,3c-1,.9-1.6,1.47-2.47,2.14A19.36,19.36,0,0,0,486.74,895a18.24,18.24,0,0,0,4.71,10,20.16,20.16,0,0,0,11.18,6.91c.61.64.65,1.48.61,3q-2.64,98.57-85.59,151.84c-4,2.6-8.37,4.76-13.37,7.59,1.15-13.73-6.36-21.64-15.61-28.53-.48-.36-.92-.8-1.4-1.17a22.09,22.09,0,0,1-8.53-15.14c-.76-5.59-1.15-11.23-1.88-16.83-1.47-11.4-9.57-19.77-20.93-19.69-6,0-12.33,2.3-17.76,5a41.47,41.47,0,0,0-13.59,11c-10,12.34-19.2,25.29-28.85,37.9-4.43,5.8-8.8,11.72-13.84,17-4.47,4.64-5.56,4.21-9.84-.51-36.14-39.94-36.39-100.75-.36-140.69,5-5.55,10.87-10.31,16.35-15.42l1.35.79c-.4,1.55-.81,3.1-1.2,4.65-.9,3.54-2.15,7-2.6,10.63-1.76,14.15,8.72,22.68,22,17.77,8.43-3.1,16.73-6.63,24.82-10.52,12.79-6.15,18.8-18.69,16.09-32.66-.63-3.23-1.74-6.36-2.76-10,1.88-.09,3.36-.24,4.85-.21a108.05,108.05,0,0,1,47.15,11.48c5.15,2.59,9,1,10.15-4.7a29.25,29.25,0,0,0,.39-10.86c-1.27-6.81-3.35-13.47-5.18-20.49.62-.32,1.52-.84,2.48-1.25,29.41-12.64,47.4-35.4,57.87-64.94,1.62-4.57.91-7.95-2.66-11.44-56-54.92-121.58-70.67-196.57-48a14.61,14.61,0,0,1-7.43,0c-8.12-2.07-16.1-4.67-24.21-6.79-7.49-2-12.44.69-16,8.06l6.82,2.33.36,1.85c-10.39-4.92-15.18,2.28-20.54,8-3.89,4.18-7.56,8.56-11.59,13.16l5.86,2c-3.11.74-7.37.44-9,2.35-6.57,7.92-12.33,16.52-18.65,25.24l5.13,1.85c-5.85-.09-8.21,3.65-10.15,8-1,2.23-2.26,4.33-3.33,6.52-13.9,28.35-20.95,58.49-23.35,89.83-2.64,34.42,2.85,67.56,19,98.07,34.75,65.81,89.56,101.3,164.26,103.81,51.67,1.74,96.47-16.54,133.55-52.23,37.88-36.46,56.81-81.64,57.42-134.3a5.92,5.92,0,0,1,1.28-4.11A20.2,20.2,0,0,0,510,872.18ZM325.13,923.66c-6.88,2.9-13.75,5.88-20.79,8.33-6.82,2.38-11-1.39-9.33-8.43a219.26,219.26,0,0,1,6.32-22.42c.7-2,3.73-3.21,5.69-4.78l1.54.95-1.41,17.75.83.26c1.36-4.75,3-9.44,4-14.27,1.55-7.87,1.51-8.06,10.75-9.29.42,4.59.84,9.16,1.26,13.74l.71.08c.74-4,1.71-8,2.15-12,.38-3.46,2.59-3.77,5.27-4.38,3-.68,3.74,1,4.7,3C343.44,906,339.1,917.78,325.13,923.66ZM449.87,806.13c-10.62,21.47-25.94,38.17-48.5,47.5-3.62,1.5-5.79.83-6.75-3.47,21.52-10.06,37.66-25.23,45.56-48.87-13.52-4.35-26.73-3.83-40.43-1.71,10.89-8.14,42.81-10.65,54.57-4.19C452.87,798.92,451.59,802.63,449.87,806.13ZM149.29,943.94c-14-87.61,35.7-163.49,107-193.39,74.84-31.36,151.43-3.61,186.39,31.63a20.07,20.07,0,0,1-3.18.42c-25.14-1.07-47.86,6.57-68.89,19.66a145.93,145.93,0,0,0-18.5,14.1c-4.35,3.79-3.59,6.6,1.3,9.68,16.4,10.34,30,23.49,39.66,40.42,3.8,6.66,6.39,13.79,5.95,22.58-2-.77-3.43-1.27-4.8-1.83-24.9-10.09-50.3-11.94-76.14-4.2-4.14,1.24-6.77-.72-9.61-2.63-24.9-16.66-34.92-43.53-27-72.68a80.52,80.52,0,0,1,5-13.72c2.09-4.35,5-8.32,7.4-12.26-6.88,1.14-9.94,4.56-19.86,22.69-3.33-1.08-6.72-2.27-10.17-3.29-11.64-3.44-23.35-6.25-35.56-3.18s-18.09,12.37-15.07,24.52c2.14,8.58,1.53,16.75-.4,25.27a42.68,42.68,0,0,0-.2,16.59c1.16,6.43,6,9.55,12.61,9.89,11,.57,20.63-3.67,30-8.61,6.45-3.42,12.56-7.49,19.32-11.56a79,79,0,0,0,28.3,33.87c-39.2,20.43-63.1,51.09-66.71,95.14s14.43,78.33,49.82,105C225.79,1076.37,162,1023.26,149.29,943.94ZM250.44,818.76C256,819.82,261.5,821,267.05,822c2.38.44,3.23,1.58,3.15,4.07-.09,2.71-1.48,3.17-3.73,3.46-8.4,1.07-16.78,2.31-25.17,3.49,0,.51.09,1,.14,1.54,5.48,0,11,0,16.44,0a30.79,30.79,0,0,1,5.93.27c2.22.45,5.58-1.42,6.32,2.54.69,3.67,1.68,6.93-2.76,9.86-11.53,7.6-23,15-36.92,17.43-7.71,1.38-10.58-1.24-9.9-9.12a24.41,24.41,0,0,1,1-5.37,51.16,51.16,0,0,0,.77-29.29c-2-7.6,1.13-13.15,9-13.87s15.73.3,23.51,1.3c4.46.57,8.71,2.71,13.11,4,3.44,1,4.57,2.72,2.75,5.76-8.64-.68-16.81-1.35-25-1.94a5.45,5.45,0,0,0-3.72,1.18C244.81,817.76,247.63,818.22,250.44,818.76Zm140.23,259.5a12.8,12.8,0,0,1-1.77,1.44c-10.72,6.75-22.86,8.64-35.88,11L372.65,1069l-1-1c-4,3.17-7.89,6.45-12,9.49-4.77,3.55-9.87,6.66-14.5,10.37-7.11,5.69-15.3,4.84-25.05,4.89,13.39-14.32,23.44-29.31,29.3-47.54-5.87,7.84-11.06,15.38-16.89,22.39-5.55,6.66-11.86,12.68-17.65,19.15-2.73,3.06-5.39,3.3-8.76,1.27-2.32-1.4-4.86-2.43-8.19-4.06,16.68-11.25,28.2-25.4,32.17-45.6-3.6,5.62-6.64,10.71-10,15.57a78.87,78.87,0,0,1-22.83,22.15c-6.41,4-6.67,3.94-12.77-1.7,3.06-3.07,6.52-5.84,9.1-9.27,6.87-9.13,13.13-18.72,20.06-27.8,6.46-8.46,13-17,20.41-24.56,4.11-4.22,9.71-7.43,15.22-9.72,8.52-3.55,16.07.81,18,9.84,1.17,5.64,1.39,11.48,2.11,17.22,1.28,10.29,6.43,18.14,14.74,24.27a39.43,39.43,0,0,1,8.61,8.69C396.47,1068.46,395.48,1073.84,390.67,1078.26ZM507.09,903.07A10.9,10.9,0,1,1,518,892.18,10.9,10.9,0,0,1,507.09,903.07Z" transform="translate(-137.62 -727.45)"/><path class="cls-3" d="M260.59,952.62c-14.44,16.51-12.48,80.27,16.22,108.75,1.63,1.61,14.43-19.31,29.58-39.48,15.95-21.22,33-39.78,56.8-34.3,29.87,6.88,15.61,44.8,24.74,49.64,27.66,14.68,16.82,29.36,21.11,26.89,76.93-44.38,89-129,85.5-131.42C485,926,440.88,901.23,353.46,952,298.23,984,261.75,951.3,260.59,952.62Zm12.72,45a7.25,7.25,0,1,1,7.24-7.24A7.24,7.24,0,0,1,273.31,997.62Zm15.33,20.73A6.34,6.34,0,1,1,295,1012,6.34,6.34,0,0,1,288.64,1018.35Zm18.24-31.1a6.68,6.68,0,1,1,6.68-6.68A6.68,6.68,0,0,1,306.88,987.25Zm128.57-12.7a7.59,7.59,0,1,1-7.58,7.59A7.58,7.58,0,0,1,435.45,974.55Zm-19.93-25.09a10.32,10.32,0,1,1-10.32,10.32A10.32,10.32,0,0,1,415.52,949.46Zm-4,43.53a6.34,6.34,0,1,1-6.34,6.34A6.34,6.34,0,0,1,411.54,993Z" transform="translate(-137.62 -727.45)"/><text class="cls-4" transform="translate(468.58 272.86)">CASTIFY</text></svg>